<?xml version="1.0" standalone="no"?>
<!DOCTYPE svg PUBLIC "-//W3C//DTD SVG 20010904//EN"
 "http://www.w3.org/TR/2001/REC-SVG-20010904/DTD/svg10.dtd">
<svg version="1.0" xmlns="http://www.w3.org/2000/svg"
 width="3840.000000pt" height="2160.000000pt" viewBox="0 0 3840.000000 2160.000000"
 preserveAspectRatio="xMidYMid meet">

<g transform="translate(0.000000,2160.000000) scale(0.100000,-0.100000)"
fill="#000000" stroke="none">
<path d="M13010 14979 c-96 -39 -126 -141 -170 -589 -11 -119 -39 -466 -45
-580 -3 -41 -9 -136 -15 -210 -5 -74 -14 -216 -20 -315 -6 -99 -15 -254 -20
-345 -6 -91 -12 -205 -15 -255 -24 -463 -62 -1202 -100 -1950 -53 -1046 -93
-1777 -100 -1820 -2 -16 -5 -66 -6 -110 -1 -44 -5 -120 -10 -170 -4 -49 -10
-135 -13 -191 -3 -55 -8 -130 -11 -165 -3 -35 -14 -188 -25 -339 -26 -359 -28
-380 -46 -380 -9 0 -14 11 -14 33 0 17 -7 122 -15 232 -8 110 -17 245 -20 300
-3 55 -10 165 -15 245 -5 80 -14 246 -20 370 -6 124 -15 299 -20 390 -12 198
-8 119 -70 1540 -77 1780 -115 2529 -140 2810 -5 58 -12 146 -15 195 -11 196
-42 520 -66 710 -14 106 -38 221 -57 270 -72 186 -249 178 -316 -13 -28 -78
-55 -233 -85 -487 -16 -137 -47 -459 -56 -580 -3 -38 -9 -126 -15 -195 -27
-345 -99 -1534 -115 -1890 -3 -63 -8 -140 -10 -170 -5 -51 -12 -176 -35 -625
-44 -846 -101 -1853 -130 -2275 -11 -157 -20 -300 -20 -317 0 -22 -5 -33 -14
-33 -8 0 -17 3 -19 8 -7 10 -24 239 -46 612 -5 85 -12 178 -15 205 -3 28 -8
95 -11 150 -3 55 -9 170 -15 255 -5 85 -16 274 -25 420 -8 146 -17 294 -20
330 -3 36 -8 126 -11 200 -3 74 -9 176 -14 225 -4 50 -9 139 -9 199 -1 60 -4
113 -6 116 -3 4 -9 101 -15 216 -86 1660 -181 2854 -246 3084 -41 144 -118
210 -208 180 -39 -13 -89 -65 -109 -113 -60 -144 -116 -612 -177 -1481 -22
-313 -59 -868 -66 -991 -2 -44 -8 -143 -14 -220 -6 -77 -12 -178 -15 -225 -5
-96 -33 -552 -70 -1140 -44 -695 -101 -1449 -110 -1458 -13 -14 -35 11 -35 40
0 18 -5 85 -10 148 -6 63 -15 165 -20 225 -5 61 -14 162 -19 225 -6 63 -15
178 -21 255 -5 77 -14 196 -20 265 -17 217 -30 393 -35 470 -3 41 -8 104 -11
140 -3 36 -10 128 -15 205 -23 344 -49 697 -79 1080 -65 849 -138 1435 -199
1596 -60 159 -217 190 -295 56 -75 -127 -119 -353 -191 -972 -32 -279 -77
-735 -130 -1310 -62 -675 -63 -685 -75 -805 -6 -58 -15 -148 -20 -200 -15
-150 -28 -271 -50 -460 -12 -96 -24 -201 -27 -232 -6 -60 -28 -80 -38 -35 -16
72 -99 818 -156 1397 -5 52 -13 136 -18 185 -6 50 -15 135 -20 190 -23 228
-32 301 -60 525 -81 633 -138 832 -255 892 -81 41 -173 3 -221 -92 -85 -168
-119 -353 -230 -1245 -103 -832 -151 -1125 -221 -1337 -18 -54 -39 -62 -55
-20 -36 94 -94 345 -128 552 -26 161 -42 267 -66 435 -36 256 -72 479 -101
630 -55 282 -107 395 -202 437 -118 52 -231 -33 -312 -234 -43 -110 -94 -283
-171 -588 -103 -407 -187 -683 -222 -727 -7 -10 -614 -13 -2973 -13 l-2964 0
0 -130 0 -130 2998 0 c2896 0 2998 1 3038 19 71 32 134 124 193 282 51 135 82
244 185 645 94 364 132 494 146 494 14 0 49 -195 110 -620 109 -761 164 -1018
258 -1210 64 -131 141 -190 248 -190 231 0 330 321 484 1570 52 426 116 889
126 923 5 15 24 25 24 12 0 -3 9 -67 20 -142 38 -269 70 -550 120 -1043 24
-237 27 -267 35 -350 3 -36 8 -81 10 -100 3 -19 18 -168 35 -330 87 -834 141
-1142 224 -1283 67 -115 215 -115 283 0 47 81 98 311 138 628 9 72 18 144 20
160 17 129 76 697 100 970 28 323 101 1100 120 1295 30 304 43 418 75 693 24
211 28 239 34 244 16 16 24 -25 40 -197 10 -102 19 -198 21 -215 3 -16 9 -84
15 -150 6 -66 12 -142 15 -170 2 -27 9 -107 15 -177 5 -71 15 -183 20 -250 15
-182 37 -491 105 -1443 3 -38 7 -104 11 -145 3 -41 7 -104 10 -140 4 -67 21
-290 29 -395 3 -33 7 -89 10 -125 10 -131 16 -196 20 -230 2 -19 6 -75 10
-125 4 -49 9 -99 10 -110 2 -11 6 -56 10 -100 3 -44 8 -93 10 -110 2 -16 7
-57 10 -90 24 -240 56 -460 87 -594 36 -157 100 -227 199 -218 126 11 169 120
223 572 41 337 53 472 96 1080 18 257 74 1118 85 1330 3 50 7 122 10 160 3 39
7 111 10 160 6 105 14 237 20 315 2 30 7 100 10 155 9 148 14 241 20 325 3 41
7 109 10 150 7 125 16 252 20 310 3 30 11 156 20 280 8 124 18 254 21 290 2
36 9 121 14 189 15 197 22 251 32 251 13 0 16 -16 22 -145 4 -66 11 -174 16
-240 6 -66 12 -163 15 -215 3 -52 7 -111 10 -130 2 -19 7 -87 10 -150 3 -63 8
-137 10 -165 3 -27 7 -90 10 -140 9 -159 15 -249 20 -310 3 -33 7 -109 10
-170 3 -60 10 -182 15 -270 6 -88 15 -243 20 -345 11 -197 27 -477 35 -600 4
-70 9 -170 20 -370 3 -47 9 -160 15 -252 31 -522 38 -636 45 -778 3 -58 10
-154 15 -215 5 -60 12 -150 15 -200 16 -267 60 -809 81 -995 41 -372 72 -511
128 -576 29 -33 38 -38 91 -42 82 -7 117 14 155 92 38 77 70 253 95 516 3 36
10 106 15 155 5 50 11 122 14 160 3 39 10 124 16 190 19 228 77 1161 95 1525
3 58 8 139 10 180 3 41 7 118 10 170 6 129 23 448 35 655 14 249 20 359 30
560 24 483 106 1843 131 2160 32 413 40 495 50 495 12 0 17 -31 24 -160 3 -63
8 -140 10 -170 5 -65 14 -208 20 -335 3 -49 10 -160 15 -245 5 -85 12 -200 15
-255 3 -55 14 -282 25 -505 11 -223 22 -475 25 -560 3 -85 7 -171 10 -190 2
-19 7 -120 10 -225 3 -104 10 -239 15 -300 4 -60 9 -175 10 -254 0 -80 3 -148
5 -152 3 -3 9 -127 15 -275 6 -148 15 -363 20 -479 5 -115 14 -315 19 -444 6
-128 12 -252 15 -275 3 -22 8 -113 11 -201 3 -88 8 -180 10 -205 3 -25 7 -101
10 -170 3 -69 15 -262 26 -430 12 -168 21 -312 21 -320 0 -8 4 -60 9 -115 4
-55 11 -131 14 -170 3 -38 7 -83 10 -100 2 -16 7 -61 10 -100 12 -143 42 -342
64 -426 37 -141 95 -196 195 -186 97 9 142 93 185 342 11 66 25 167 31 225 7
58 13 116 16 130 13 83 77 876 89 1110 3 52 7 118 10 145 2 28 7 100 10 160 3
61 8 135 11 165 6 71 30 501 53 960 5 107 12 224 15 260 3 36 8 123 11 193 2
71 7 163 10 205 3 42 7 129 10 192 10 210 65 1292 75 1480 6 102 13 230 15
285 3 55 7 127 10 160 2 33 7 112 10 175 3 63 8 147 10 185 17 270 25 407 31
520 6 132 8 145 24 145 8 0 15 -63 25 -235 2 -49 14 -250 25 -445 27 -488 80
-1526 86 -1690 3 -74 9 -182 13 -240 5 -58 9 -143 10 -190 1 -47 5 -159 11
-250 11 -184 27 -502 36 -715 3 -77 7 -142 9 -145 2 -3 5 -62 6 -130 1 -69 5
-165 10 -215 4 -49 10 -153 13 -230 3 -77 8 -167 11 -200 3 -33 10 -145 15
-250 18 -312 54 -870 65 -974 2 -25 9 -102 15 -171 49 -557 83 -722 163 -770
38 -24 106 -26 146 -6 87 45 118 178 171 736 21 227 70 943 85 1255 3 61 8
130 10 155 3 25 7 110 10 190 3 80 8 163 11 185 5 38 10 123 34 643 5 117 12
217 14 221 3 4 6 66 6 137 1 71 6 167 10 214 5 47 11 153 14 235 3 83 8 179
11 215 3 36 7 115 10 175 5 118 14 275 45 809 11 186 23 375 25 420 3 44 8
115 11 156 3 41 7 104 10 140 2 36 6 97 9 135 3 39 14 192 25 340 34 459 53
656 64 652 11 -4 17 -48 36 -297 18 -244 32 -431 45 -635 3 -49 8 -115 10
-145 2 -30 6 -109 10 -175 4 -66 8 -142 10 -170 2 -27 6 -113 10 -190 3 -77 8
-158 10 -180 2 -22 7 -105 10 -185 4 -80 8 -165 10 -190 2 -25 6 -110 10 -190
3 -80 10 -215 15 -300 5 -85 12 -222 15 -305 3 -82 7 -175 10 -205 3 -30 7
-122 10 -205 3 -82 8 -188 10 -235 3 -47 14 -272 25 -500 26 -549 58 -1144 65
-1200 2 -25 7 -94 10 -155 3 -60 7 -128 10 -150 3 -22 10 -101 15 -175 29
-363 57 -546 95 -621 23 -44 71 -69 132 -69 95 0 143 67 177 250 30 157 82
679 121 1215 3 39 9 133 15 210 6 77 13 174 16 215 8 111 12 182 19 305 3 61
10 155 15 210 5 55 12 156 15 224 3 68 7 127 10 130 2 4 5 50 5 102 1 52 6
128 10 169 5 41 11 131 14 200 4 68 8 140 11 160 2 19 7 84 10 144 3 60 7 132
10 160 2 28 9 123 15 211 6 88 17 255 25 370 44 614 52 713 100 1208 14 142
25 265 25 273 0 8 6 14 14 14 13 0 16 -21 31 -215 3 -33 8 -80 10 -105 3 -25
8 -85 11 -135 3 -49 9 -114 13 -143 5 -30 9 -90 10 -135 1 -44 4 -83 6 -86 1
-3 6 -51 9 -106 4 -55 11 -156 16 -225 9 -120 24 -334 35 -525 3 -49 8 -115
10 -145 6 -77 11 -154 45 -675 94 -1417 161 -2053 242 -2284 44 -125 131 -188
223 -161 127 38 182 190 249 700 13 102 27 217 31 255 3 39 8 84 11 100 2 17
11 107 19 200 9 94 17 190 20 215 7 72 24 266 45 540 30 383 80 1008 85 1065
3 28 12 131 20 230 9 99 18 191 20 205 2 14 7 65 10 115 4 49 8 92 10 95 1 3
6 41 10 85 16 186 50 419 62 422 14 5 17 -8 33 -142 6 -55 15 -131 20 -170 5
-38 14 -119 20 -180 6 -60 15 -148 20 -195 12 -112 24 -238 66 -705 19 -214
39 -432 44 -482 6 -51 14 -135 20 -185 69 -657 152 -1008 263 -1105 44 -38
106 -57 160 -49 194 31 291 280 446 1141 22 121 58 328 81 460 22 132 62 341
87 465 25 124 48 236 50 250 4 20 44 166 69 253 9 29 31 19 42 -20 80 -287
131 -522 202 -928 179 -1030 235 -1278 335 -1476 83 -162 241 -198 349 -78 85
94 130 274 171 679 18 186 22 229 30 340 3 47 8 108 10 135 2 28 6 86 9 130
14 195 16 223 21 275 2 30 10 118 15 195 29 366 83 748 110 779 25 26 77 -207
130 -574 61 -426 96 -578 162 -702 92 -172 259 -209 393 -87 109 100 178 298
264 754 17 88 45 235 62 328 20 106 36 167 43 167 16 0 60 -315 81 -580 3 -41
8 -91 10 -110 6 -46 12 -122 35 -455 58 -809 95 -1080 169 -1229 30 -60 43
-75 81 -94 76 -39 170 -18 233 53 105 115 187 457 287 1185 11 80 24 177 30
215 5 39 35 273 66 520 86 695 166 1238 185 1259 5 5 11 7 15 3 6 -6 33 -205
59 -432 20 -190 22 -205 40 -400 8 -93 17 -195 20 -225 7 -78 24 -290 30 -385
3 -44 8 -98 10 -120 8 -72 19 -207 30 -365 3 -41 7 -97 10 -125 5 -58 6 -66
45 -540 109 -1306 178 -1638 348 -1676 94 -21 169 30 215 143 37 92 88 376
113 623 3 39 8 77 9 86 2 9 6 52 10 95 4 43 8 90 10 104 2 14 7 61 10 105 4
44 8 96 10 116 23 239 62 781 110 1519 14 217 32 494 41 615 8 121 19 279 24
350 31 448 67 902 74 936 3 13 8 69 11 124 6 93 15 128 31 112 7 -7 12 -53 44
-397 11 -124 22 -247 25 -275 2 -27 9 -108 15 -180 6 -71 13 -157 15 -190 3
-33 10 -123 15 -200 5 -77 14 -201 20 -275 5 -74 12 -171 15 -215 14 -206 35
-525 45 -670 6 -88 15 -227 20 -310 6 -82 13 -190 15 -240 3 -49 7 -115 10
-145 3 -30 7 -100 10 -155 3 -55 8 -127 10 -160 3 -33 8 -98 10 -145 5 -78 11
-167 20 -280 4 -40 14 -196 20 -290 7 -113 17 -248 20 -265 1 -11 6 -65 9
-120 4 -55 9 -118 11 -140 2 -22 11 -123 20 -225 47 -556 89 -781 155 -845 24
-23 41 -29 87 -32 150 -10 182 77 227 602 20 230 24 280 31 390 3 50 8 117 10
150 2 33 7 98 10 145 2 47 9 157 15 245 12 189 38 725 80 1615 33 700 77 1596
84 1700 3 36 8 119 11 185 4 66 8 143 10 170 3 28 7 100 10 160 3 61 8 135 10
165 3 30 7 102 10 160 3 58 10 150 15 205 5 55 14 168 20 250 7 83 13 166 15
185 2 19 4 51 4 70 1 36 15 69 26 59 5 -6 9 -43 34 -339 11 -119 48 -615 57
-755 3 -44 7 -105 9 -135 2 -30 7 -98 10 -150 3 -52 8 -122 10 -155 8 -109 45
-758 50 -885 3 -69 8 -141 10 -160 2 -20 7 -112 10 -205 4 -94 8 -176 11 -183
2 -7 6 -90 9 -185 4 -95 8 -181 10 -192 2 -11 7 -99 10 -195 3 -96 8 -186 11
-199 5 -22 12 -168 30 -571 2 -69 9 -170 14 -225 4 -55 9 -140 9 -190 1 -49 6
-135 11 -190 5 -55 12 -157 15 -228 2 -70 7 -144 10 -165 2 -20 7 -86 10 -147
22 -436 78 -1066 115 -1298 29 -182 83 -257 187 -257 69 0 116 43 148 135 16
48 20 69 44 233 11 71 45 415 56 562 3 41 8 107 11 145 11 154 14 185 24 320
11 149 42 686 60 1025 5 113 12 237 15 275 3 39 7 135 10 215 3 80 8 161 10
180 2 19 7 118 10 220 4 102 8 190 10 197 2 7 7 94 10 195 3 101 8 197 10 213
2 17 7 104 10 195 3 91 10 215 15 275 4 61 9 164 10 229 0 66 2 122 4 125 2 3
7 65 10 136 4 72 11 216 17 320 5 105 21 397 34 650 46 875 59 1065 70 1062 6
-2 15 -83 22 -203 33 -551 55 -939 59 -1029 2 -55 8 -165 14 -245 5 -80 12
-197 15 -260 5 -110 23 -469 45 -895 33 -633 42 -801 46 -905 2 -63 6 -142 9
-176 3 -34 8 -119 10 -190 3 -71 8 -154 11 -184 3 -30 9 -143 15 -250 12 -252
17 -332 29 -515 5 -82 12 -188 15 -235 2 -47 7 -116 10 -155 2 -38 7 -106 10
-150 34 -501 65 -851 100 -1137 52 -417 94 -529 205 -544 111 -14 174 48 208
208 28 129 42 230 67 478 31 321 60 733 85 1205 7 121 15 267 19 325 4 58 9
161 10 229 1 69 4 127 6 131 2 3 7 100 10 216 4 115 8 215 11 222 2 8 6 102 9
210 3 108 8 213 10 233 3 20 7 119 10 220 3 101 10 239 15 307 6 68 10 178 10
245 0 67 4 172 9 232 6 61 12 189 15 285 3 96 8 209 11 250 3 41 9 179 15 305
24 532 72 1440 85 1590 2 33 7 101 10 150 8 137 16 195 25 195 9 0 17 -50 25
-165 3 -44 8 -102 10 -130 15 -174 15 -185 30 -385 3 -41 7 -104 10 -140 9
-120 54 -872 74 -1245 11 -203 23 -404 26 -445 3 -41 7 -136 10 -210 3 -74 8
-155 10 -180 3 -25 7 -99 10 -165 3 -66 9 -194 15 -285 5 -91 14 -255 20 -365
18 -330 20 -378 35 -635 93 -1630 148 -2233 220 -2395 40 -90 75 -111 166
-103 117 12 154 104 203 508 29 238 87 934 102 1225 2 55 7 117 9 137 3 21 7
93 10 160 3 68 8 141 11 163 3 22 9 121 14 220 13 256 19 361 30 520 5 77 12
190 14 250 3 61 8 137 11 170 2 33 7 110 10 170 3 61 9 187 15 280 5 94 14
253 20 355 16 295 30 523 40 695 6 88 13 198 15 245 6 90 32 495 41 620 2 41
9 127 14 190 17 206 19 234 20 290 0 59 13 92 28 75 14 -15 96 -1159 137
-1905 3 -52 7 -117 10 -145 2 -27 7 -106 10 -175 4 -69 10 -165 14 -215 5 -49
9 -121 10 -160 1 -38 4 -83 6 -100 1 -16 6 -82 9 -145 7 -124 13 -214 21 -325
2 -38 7 -106 10 -150 94 -1468 157 -2018 246 -2149 28 -42 73 -66 124 -66 72
0 129 50 164 146 40 107 88 444 136 954 17 178 19 205 35 410 6 74 15 182 20
240 5 58 12 150 15 205 4 55 8 114 10 130 2 17 5 55 6 85 1 30 5 89 9 130 5
41 11 127 15 190 3 63 8 124 10 135 2 11 7 74 10 140 3 66 8 129 10 140 2 11
6 70 9 130 3 61 8 130 11 155 2 25 9 113 15 195 20 279 47 642 60 785 5 58 17
186 26 285 22 255 52 516 59 523 13 14 23 -20 35 -118 6 -58 16 -136 20 -175
21 -178 45 -402 60 -560 23 -232 33 -341 90 -960 103 -1127 150 -1552 205
-1856 54 -297 113 -399 229 -399 74 0 132 48 175 145 64 145 133 608 221 1490
5 55 17 170 25 255 9 85 20 198 25 250 9 97 37 357 45 420 2 19 7 62 10 95 11
101 53 433 71 563 11 75 22 122 29 122 7 0 17 -35 24 -87 7 -49 16 -113 21
-143 18 -112 32 -215 81 -615 44 -360 74 -587 109 -815 60 -403 141 -672 232
-776 90 -102 241 -98 334 9 129 149 198 428 324 1307 35 247 78 512 96 603 16
80 45 -6 176 -517 141 -555 199 -714 296 -819 26 -27 61 -56 79 -63 27 -12
527 -14 3023 -14 l2990 0 0 130 0 130 -2960 0 -2959 0 -15 28 c-42 83 -113
321 -221 742 -92 360 -136 503 -186 608 -91 190 -224 251 -331 154 -76 -68
-122 -196 -173 -477 -25 -140 -38 -226 -96 -620 -63 -435 -106 -662 -160 -847
-47 -161 -64 -150 -118 72 -50 206 -102 550 -181 1180 -87 696 -116 891 -162
1080 -37 155 -96 256 -165 285 -105 44 -199 -23 -253 -181 -49 -141 -108 -509
-165 -1022 -8 -75 -19 -180 -25 -232 -14 -123 -13 -118 -60 -580 -47 -471 -54
-535 -79 -750 -51 -433 -54 -450 -67 -450 -18 0 -17 -4 -59 360 -23 208 -34
306 -45 420 -6 58 -15 146 -20 195 -6 50 -33 340 -60 645 -27 305 -54 596 -60
645 -5 50 -14 140 -20 200 -15 152 -26 262 -56 530 -94 863 -159 1103 -302
1122 -55 7 -85 -2 -125 -37 -66 -58 -101 -177 -146 -495 -26 -181 -72 -630
-101 -985 -6 -69 -15 -179 -20 -245 -21 -250 -37 -465 -60 -800 -6 -82 -15
-208 -20 -280 -6 -71 -19 -258 -30 -415 -32 -446 -69 -908 -98 -1230 -22 -245
-30 -295 -43 -298 -13 -2 -18 28 -32 210 -40 491 -70 930 -127 1858 -11 179
-22 366 -25 415 -5 94 -17 284 -35 545 -6 85 -20 295 -30 465 -11 171 -25 373
-30 450 -6 77 -15 201 -21 275 -18 253 -56 674 -69 783 -6 42 -15 114 -20 160
-38 307 -84 428 -173 462 -90 34 -166 -17 -207 -140 -51 -155 -104 -652 -160
-1495 -6 -91 -13 -185 -15 -210 -12 -129 -37 -562 -115 -1955 -28 -495 -55
-967 -60 -1050 -6 -82 -15 -226 -20 -320 -5 -93 -12 -179 -14 -190 -3 -11 -6
-58 -7 -105 0 -47 -5 -121 -10 -165 -4 -44 -13 -161 -19 -260 -18 -307 -20
-325 -36 -325 -8 0 -14 3 -14 8 0 4 -5 59 -10 123 -15 185 -61 895 -80 1259
-6 107 -13 222 -15 255 -7 94 -33 571 -55 1005 -52 1008 -101 1869 -131 2295
-5 77 -12 183 -15 235 -3 52 -9 128 -15 168 -5 40 -9 101 -9 135 0 34 -4 98
-9 142 -6 44 -15 136 -21 205 -36 425 -86 716 -138 814 -62 115 -187 128 -255
28 -67 -97 -109 -357 -152 -927 -9 -110 -18 -227 -20 -260 -3 -33 -7 -100 -10
-150 -2 -49 -9 -160 -14 -245 -23 -341 -62 -1176 -111 -2315 -16 -385 -32
-738 -35 -785 -3 -47 -8 -130 -10 -185 -29 -688 -104 -2062 -121 -2227 -9 -84
-29 -76 -38 15 -11 118 -46 581 -56 737 -5 80 -16 251 -24 380 -32 482 -75
1297 -141 2625 -19 391 -37 744 -40 785 -3 41 -8 113 -10 159 -2 47 -6 125 -9
175 -3 50 -8 143 -11 206 -3 63 -7 142 -10 175 -3 33 -7 110 -10 170 -14 257
-25 449 -35 585 -5 80 -15 213 -20 295 -33 472 -76 837 -110 928 -37 98 -107
143 -183 118 -34 -12 -76 -50 -95 -86 -28 -57 -57 -234 -81 -500 -6 -66 -16
-167 -21 -225 -5 -58 -12 -139 -15 -180 -2 -41 -9 -133 -14 -205 -13 -164 -37
-573 -61 -1010 -15 -290 -49 -947 -55 -1070 -5 -117 -19 -390 -35 -695 -6
-102 -15 -273 -20 -380 -19 -349 -89 -1643 -117 -2147 -24 -429 -29 -493 -43
-493 -12 0 -16 13 -18 63 -1 34 -4 85 -6 112 -3 28 -7 111 -11 185 -3 74 -8
149 -11 167 -2 17 -9 109 -14 205 -5 95 -14 247 -20 338 -10 175 -15 270 -54
1025 -14 264 -28 518 -31 565 -3 47 -8 139 -10 205 -3 66 -7 147 -10 180 -3
33 -7 110 -10 170 -5 111 -17 324 -35 625 -6 91 -12 203 -15 250 -36 645 -91
1394 -126 1725 -63 603 -102 751 -214 805 -77 37 -160 -1 -203 -93 -72 -153
-134 -668 -192 -1577 -6 -91 -15 -230 -20 -310 -9 -137 -12 -193 -25 -450 -3
-58 -8 -134 -10 -170 -9 -119 -61 -1151 -95 -1905 -19 -413 -46 -957 -55
-1085 -2 -36 -7 -135 -10 -220 -7 -172 -10 -190 -31 -190 -9 0 -14 11 -14 33
0 17 -7 120 -15 227 -9 107 -20 256 -25 330 -5 74 -20 304 -34 510 -38 558
-45 658 -56 855 -6 99 -15 214 -19 255 -5 41 -9 113 -10 160 -1 47 -6 116 -11
155 -5 38 -10 101 -10 139 0 38 -4 119 -10 180 -5 61 -14 179 -20 261 -6 83
-15 204 -21 270 -5 66 -18 233 -30 370 -58 719 -114 1171 -168 1346 -39 124
-105 186 -189 176 -51 -6 -101 -47 -132 -112 -76 -157 -130 -598 -209 -1690
-6 -77 -15 -203 -21 -280 -5 -77 -15 -212 -20 -300 -6 -88 -15 -225 -20 -305
-6 -80 -19 -282 -30 -450 -32 -486 -59 -865 -70 -995 -6 -66 -15 -171 -20
-232 -48 -555 -68 -733 -86 -733 -14 0 -17 17 -44 245 -31 268 -85 871 -120
1345 -6 80 -15 181 -21 224 -5 44 -9 102 -9 130 0 28 -4 94 -10 146 -5 52 -14
151 -20 220 -117 1389 -181 1754 -323 1840 -43 27 -112 26 -156 -1 -152 -92
-209 -350 -380 -1709 -80 -627 -90 -711 -122 -930 -30 -214 -84 -511 -110
-612 -17 -68 -36 -47 -47 55 -18 144 -46 469 -62 692 -37 527 -71 891 -105
1135 -41 289 -118 471 -219 519 -51 25 -84 26 -134 6 -71 -30 -112 -85 -155
-205 -36 -99 -56 -192 -117 -520 -66 -357 -94 -481 -137 -613 -35 -106 -55
-135 -74 -106 -14 22 -38 106 -60 212 -18 89 -31 174 -84 532 -68 456 -153
649 -307 701 -215 71 -333 -153 -398 -756 -22 -201 -35 -359 -65 -790 -24
-354 -47 -589 -75 -800 -6 -41 -13 -97 -17 -123 -5 -42 -24 -69 -38 -56 -16
17 -108 433 -164 744 -17 94 -36 195 -41 225 -6 30 -26 147 -46 260 -78 455
-164 845 -219 1000 -83 231 -190 334 -312 301 -64 -17 -99 -45 -144 -114 -77
-119 -132 -303 -213 -714 -25 -125 -59 -307 -76 -403 -16 -96 -34 -201 -40
-232 -5 -32 -14 -84 -20 -115 -67 -390 -160 -824 -204 -948 -19 -54 -42 -57
-55 -8 -34 127 -78 406 -116 738 -17 157 -69 677 -80 815 -3 30 -9 102 -15
160 -21 229 -30 330 -40 440 -44 482 -100 859 -150 1021 -56 182 -164 258
-280 199 -51 -26 -83 -78 -119 -188 -67 -204 -137 -753 -201 -1567 -6 -77 -15
-179 -21 -226 -5 -47 -9 -111 -9 -143 0 -31 -4 -87 -9 -124 -5 -37 -15 -141
-21 -232 -14 -205 -14 -207 -50 -610 -5 -63 -14 -171 -20 -240 -15 -174 -58
-585 -73 -705 -10 -76 -17 -101 -28 -103 -16 -3 -21 30 -49 318 -5 47 -14 132
-19 190 -14 138 -61 744 -91 1185 -6 83 -17 251 -26 375 -16 232 -27 404 -44
665 -5 83 -14 213 -19 290 -41 562 -52 711 -62 809 -5 61 -12 143 -15 181 -21
290 -79 723 -114 853 -44 159 -106 230 -195 220 -57 -7 -106 -44 -134 -101
-63 -130 -123 -533 -181 -1212 -6 -71 -15 -177 -20 -235 -10 -110 -23 -277
-40 -520 -6 -80 -15 -199 -20 -265 -9 -108 -32 -444 -60 -890 -6 -88 -12 -189
-15 -225 -3 -36 -10 -139 -15 -230 -23 -377 -64 -977 -84 -1245 -19 -247 -23
-301 -25 -342 -1 -21 -6 -33 -15 -33 -16 0 -15 -14 -46 560 -13 242 -33 663
-85 1765 -14 297 -30 619 -36 715 -6 96 -14 254 -19 350 -10 215 -36 663 -50
865 -5 83 -15 220 -20 305 -19 272 -51 651 -70 810 -6 47 -15 121 -20 165 -22
182 -59 346 -96 416 -20 39 -79 87 -116 94 -85 16 -161 -57 -202 -193 -28 -95
-70 -380 -96 -657 -6 -60 -13 -132 -15 -160 -16 -164 -48 -580 -65 -855 -6
-85 -12 -186 -15 -225 -3 -38 -7 -106 -10 -150 -3 -44 -7 -109 -10 -145 -8
-96 -59 -1022 -105 -1920 -32 -618 -50 -951 -60 -1130 -5 -91 -12 -212 -15
-270 -3 -58 -10 -163 -15 -235 -6 -71 -12 -170 -14 -220 -3 -49 -7 -126 -11
-170 -7 -100 -13 -199 -14 -247 -1 -55 -28 -51 -35 5 -3 23 -24 375 -46 782
-22 407 -47 857 -56 1000 -8 143 -17 312 -20 375 -2 63 -9 178 -14 255 -5 77
-12 196 -15 265 -3 69 -7 159 -10 200 -3 41 -7 136 -10 210 -3 74 -7 167 -10
205 -3 39 -9 169 -15 290 -27 584 -69 1390 -75 1451 -3 28 -7 107 -11 175 -3
68 -12 221 -20 339 -9 118 -19 274 -24 345 -30 438 -68 778 -99 891 -33 119
-115 177 -201 143z"/>
</g>
</svg>
